#!OML:ASF \\sashay\E\Suitcase\Project 1\Capture day 1\Session 1\Male1.ASF
:FULLY-SPECIFIED
:DEGREES
878
root -0.41194 17.3098 20.2372 6.66264 1.44041 -2.82583
lowerback 2.49517 -3.03067 3.4751
upperback 1.53649 -3.96678 4.91609
thorax 0.298584 -1.98351 3.19963
lowerneck -10.01 -0.523991 -5.12988
upperneck 38.8793 2.24529 -4.73163
head 15.3905 -0.452825 -0.757023
rclavicle -1.98785e-016 7.95139e-016
rhumerus -42.7624 -34.9929 -52.3457
rradius 18.4103
rwrist 5.82822
rhand -11.4773 20.6813
rfingers 7.12502
rthumb 14.5607 -8.78764
lclavicle -1.98785e-016 7.95139e-016
lhumerus -34.2571 -4.50708 92.5151
lradius 37.3303
lwrist -1.35564
lhand -5.54989 42.7705
lfingers 7.12502
lthumb 20.265 71.7334
rfemur -7.47109 0.0328948 27.1026
rtibia 15.1183
rfoot -13.1718 -11.5214
rtoes 13.5956
lfemur -5.82573 -5.67282 -11.0037
ltibia 13.993
lfoot -13.3785 5.91416
ltoes 0.245113
879
root -0.415224 17.3047 20.223 6.45979 1.30159 -2.99361
lowerback 2.76328 -2.97261 3.51039
upperback 1.50986 -3.86826 4.91509
thorax 0.115748 -1.93494 3.19347
lowerneck -10.0606 -0.443972 -5.29648
upperneck 38.8133 2.26233 -4.33482
head 15.357 -0.416002 -0.553626
rclavicle -1.94809e-014 -7.95139e-016
rhumerus -42.2678 -34.3747 -53.1816
rradius 18.3947
rwrist 5.09832
rhand -11.7775 21.3224
rfingers 7.12502
rthumb 14.2714 -8.16716
lclavicle -1.94809e-014 -7.95139e-016
lhumerus -34.2132 -4.65008 92.3781
lradius 37.06
lwrist -1.44544
lhand -5.82635 42.7537
lfingers 7.12502
lthumb 19.9993 71.7445
rfemur -7.42679 0.125655 27.3216
rtibia 15.3487
rfoot -13.077 -11.6374
rtoes 12.9438
lfemur -5.55394 -5.63062 -10.8332
ltibia 13.8467
lfoot -13.762 5.65169
ltoes 3.70891
880
root -0.414539 17.3091 20.2153 6.44492 1.19852 -3.05025
lowerback 2.72652 -2.99811 3.48122
upperback 1.48057 -3.90406 4.92935
thorax 0.110166 -1.95335 3.2242
lowerneck -10.0522 -0.354054 -4.56144
upperneck 38.4848 2.43411 -5.00623
head 15.2076 -0.316379 -0.935376
rclavicle -1.5704e-014 2.94201e-014
rhumerus -41.7294 -34.1265 -53.8568
rradius 18.5766
rwrist 4.76836
rhand -11.779 21.4881
rfingers 7.12502
rthumb 14.27 -8.00156
lclavicle -1.5704e-014 2.94201e-014
lhumerus -34.3031 -4.43752 92.2349
lradius 36.964
lwrist -1.49166
lhand -6.36174 42.4525
lfingers 7.12502
lthumb 19.4846 71.4962
rfemur -7.61671 0.376099 27.346
rtibia 15.5863
rfoot -13.2064 -11.7583
rtoes 13.5269
lfemur -5.44845 -5.51744 -10.783
ltibia 13.6708
lfoot -13.6018 6.31742
ltoes -1.31397
881
root -0.414309 17.2898 20.2084 6.38011 0.962061 -3.13153
lowerback 2.661 -2.89787 3.50344
upperback 1.46737 -3.77388 4.85614
thorax 0.122649 -1.88759 3.12926
lowerneck -10.3075 -0.388898 -4.10992
upperneck 38.5069 2.35456 -5.19396
head 15.2811 -0.31484 -1.1098
rclavicle 5.96354e-015 1.98785e-014
rhumerus -41.5121 -34.0308 -54.3266
rradius 18.8741
rwrist 4.67141
rhand -11.518 21.5487
rfingers 7.12502
rthumb 14.5214 -7.92306
lclavicle 5.96354e-015 1.98785e-014
lhumerus -34.325 -4.59405 92.1313
lradius 36.6719
lwrist -1.23416
lhand -6.42052 42.7753
lfingers 7.12502
lthumb 19.4281 71.8247
rfemur -7.52122 0.813904 27.3708
rtibia 15.6881
rfoot -13.5877 -11.5471
rtoes 15.4384
lfemur -5.2876 -5.26112 -10.7633
ltibia 13.744
lfoot -13.7306 6.15877
ltoes -1.56893
882
root -0.397486 17.2814 20.1996 6.34576 1.01933 -3.16809
lowerback 2.46273 -3.00636 3.66904
upperback 1.50262 -3.93104 4.92807
thorax 0.268795 -1.96453 3.10285
lowerneck -10.1232 -0.259731 -4.55625
upperneck 37.9662 2.52548 -4.94481
head 14.9657 -0.254778 -0.882448
rclavicle -2.06736e-014 2.3059e-014
rhumerus -40.7793 -33.4106 -55.1233
rradius 19.2864
rwrist 4.14968
rhand -11.5026 21.2627
rfingers 7.12502
rthumb 14.5363 -8.20804
lclavicle -2.06736e-014 2.3059e-014
lhumerus -34.26 -4.02662 92.0734
lradius 36.4994
lwrist -1.47926
lhand -6.61018 42.3627
lfingers 7.12502
lthumb 19.2457 71.4304
rfemur -7.5745 0.427551 27.3409
rtibia 15.6556
rfoot -13.4216 -11.2364
rtoes 15.2999
lfemur -5.17094 -5.03288 -10.8408
ltibia 13.7976
lfoot -13.8441 6.79108
ltoes -6.25096
883
root -0.375536 17.2853 20.1865 6.33195 1.10187 -3.14958
lowerback 2.22576 -3.13058 3.84391
upperback 1.64664 -4.11987 4.9908
thorax 0.547858 -2.05572 3.05551
lowerneck -10.5399 -0.179323 -4.85531
upperneck 37.6847 2.71467 -4.86692
head 14.9262 -0.204377 -0.761941
rclavicle 3.73715e-014 -4.37326e-014
rhumerus -39.8587 -33.0878 -55.8303
rradius 19.5144
rwrist 3.73851
rhand -11.715 21.7357
rfingers 7.12502
rthumb 14.3316 -7.74963
lclavicle 3.73715e-014 -4.37326e-014
lhumerus -33.8837 -3.44051 91.9899
lradius 36.3667
lwrist -1.75873
lhand -5.87337 42.5588
lfingers 7.12502
lthumb 19.9541 71.5543
rfemur -7.38908 -0.482279 27.2046
rtibia 15.4002
rfoot -13.3307 -10.3837
rtoes 15.5143
lfemur -5.40616 -5.37884 -10.9277
ltibia 14.1553
lfoot -13.7319 6.24887
ltoes -3.45596
884
root -0.355532 17.3045 20.1735 6.30189 1.23414 -3.03891
lowerback 2.17608 -3.17789 4.01074
upperback 1.63131 -4.18139 4.85219
thorax 0.539006 -2.08351 2.81845
lowerneck -10.6007 -0.129615 -4.83795
upperneck 37.3288 2.67009 -4.59862
head 14.7569 -0.174461 -0.650905
rclavicle 1.45113e-014 2.38542e-015
rhumerus -39.3639 -32.9066 -56.456
rradius 19.7512
rwrist 3.21524
rhand -11.3647 21.4063
rfingers 7.12502
rthumb 14.6691 -8.05476
lclavicle 1.45113e-014 2.38542e-015
lhumerus -33.9392 -3.48184 91.8555
lradius 36.1764
lwrist -1.99105
lhand -5.61096 42.3855
lfingers 7.12502
lthumb 20.2063 71.3546
rfemur -7.23183 -1.4121 27.0051
rtibia 15.0847
rfoot -12.9417 -9.55297
rtoes 14.9957
lfemur -5.65635 -5.76783 -11.0802
ltibia 14.4101
lfoot -13.8376 6.51983
ltoes 1.27085
